<svg width="22" height="24" viewBox="0 0 22 24" fill="none" xmlns="http://www.w3.org/2000/svg">
<path d="M17.6667 7.75045C17.6667 6.00441 16.9643 4.32988 15.714 3.09524C14.4638 1.8606 12.7681 1.16699 11 1.16699C9.23189 1.16699 7.5362 1.8606 6.28596 3.09524C5.03571 4.32988 4.33333 6.00441 4.33333 7.75045C4.33333 15.4312 1 17.6256 1 17.6256H21C21 17.6256 17.6667 15.4312 17.6667 7.75045Z" stroke="#E6EEF2" stroke-width="2" stroke-linecap="round" stroke-linejoin="round"/>
<path d="M12.9226 21.7402C12.7272 22.0728 12.4468 22.3488 12.1095 22.5407C11.7721 22.7326 11.3897 22.8336 11.0003 22.8336C10.611 22.8336 10.2286 22.7326 9.89121 22.5407C9.55385 22.3488 9.27347 22.0728 9.07812 21.7402" stroke="#E6EEF2" stroke-width="2" stroke-linecap="round" stroke-linejoin="round"/>
</svg>
