<svg width="122" height="35" viewBox="0 0 122 35" fill="none" xmlns="http://www.w3.org/2000/svg">
<path d="M0.925 3.04H9.925V34H0.925V3.04ZM11.815 17.485H12.895C13.855 17.485 14.56 17.455 15.01 17.395C15.49 17.305 15.865 17.125 16.135 16.855C16.405 16.615 16.57 16.27 16.63 15.82C16.72 15.34 16.765 14.635 16.765 13.705C16.765 12.775 16.72 12.085 16.63 11.635C16.57 11.155 16.405 10.78 16.135 10.51C15.865 10.27 15.49 10.12 15.01 10.06C14.53 9.97 13.825 9.925 12.895 9.925H11.815V3.04H15.55C17.77 3.04 19.57 3.265 20.95 3.715C22.36 4.135 23.425 4.795 24.145 5.695C24.835 6.535 25.3 7.6 25.54 8.89C25.78 10.15 25.9 11.755 25.9 13.705C25.9 15.565 25.78 17.11 25.54 18.34C25.33 19.57 24.895 20.605 24.235 21.445C23.485 22.405 22.405 23.14 20.995 23.65C19.615 24.13 17.8 24.37 15.55 24.37H11.815V17.485ZM38.2539 34.315C35.5539 34.315 33.7389 33.49 32.8089 31.84C32.3889 31.12 32.1039 30.25 31.9539 29.23C31.8039 28.18 31.7289 26.905 31.7289 25.405V11.05H40.0539V21.895C40.0539 23.485 40.0689 24.535 40.0989 25.045C40.1589 25.795 40.2489 26.335 40.3689 26.665C40.4889 26.995 40.6839 27.205 40.9539 27.295C41.2239 27.355 41.7039 27.385 42.3939 27.385H42.8439V33.01C41.6739 33.88 40.1439 34.315 38.2539 34.315ZM44.7339 11.05H53.0589V34H44.7339V11.05ZM60.4361 0.564999H68.7611V34H60.4361V0.564999ZM93.1434 17.305C92.5734 17.275 91.7934 17.2 90.8034 17.08C88.9434 16.9 87.4434 16.81 86.3034 16.81H84.8184V10.69C86.9484 10.69 88.9734 10.84 90.8934 11.14L93.1434 11.545V17.305ZM86.6184 27.025C86.6184 26.575 86.5434 26.29 86.3934 26.17C86.2434 26.05 85.9284 25.96 85.4484 25.9L80.5884 25.225C79.3884 25.045 78.4134 24.76 77.6634 24.37C76.9434 23.98 76.4034 23.455 76.0434 22.795C75.6834 22.225 75.4434 21.535 75.3234 20.725C75.2034 19.915 75.1434 18.91 75.1434 17.71C75.1434 15.25 75.8784 13.45 77.3484 12.31C78.5784 11.41 80.4384 10.885 82.9284 10.735V17.8C82.9284 18.25 82.9884 18.55 83.1084 18.7C83.2284 18.82 83.6034 18.925 84.2334 19.015L89.6334 19.735C90.4134 19.825 91.0884 19.99 91.6584 20.23C92.2284 20.44 92.7084 20.77 93.0984 21.22C93.9684 22.18 94.4034 24.025 94.4034 26.755C94.4034 29.635 93.6684 31.645 92.1984 32.785C90.9084 33.745 89.0484 34.255 86.6184 34.315V27.025ZM84.7284 34.36C82.3284 34.33 80.2284 34.18 78.4284 33.91L75.8634 33.505V27.745C77.0634 27.865 78.6834 27.985 80.7234 28.105C81.8634 28.165 82.6734 28.195 83.1534 28.195H84.7284V34.36ZM110.29 20.275H113.44C113.44 18.595 113.275 17.515 112.945 17.035C112.765 16.765 112.525 16.6 112.225 16.54C111.925 16.45 111.49 16.405 110.92 16.405H110.29V10.69H110.92C113.5 10.69 115.48 10.9 116.86 11.32C118.27 11.74 119.305 12.43 119.965 13.39C120.565 14.23 120.925 15.31 121.045 16.63C121.195 17.95 121.27 19.93 121.27 22.57V24.37H110.29V20.275ZM111.82 34.36C109.06 34.36 106.885 34.135 105.295 33.685C103.735 33.205 102.565 32.455 101.785 31.435C101.095 30.535 100.645 29.425 100.435 28.105C100.225 26.755 100.12 24.91 100.12 22.57C100.12 20.41 100.195 18.7 100.345 17.44C100.495 16.15 100.81 15.055 101.29 14.155C101.83 13.165 102.655 12.4 103.765 11.86C104.905 11.29 106.45 10.93 108.4 10.78V24.37C108.4 25.39 108.445 26.125 108.535 26.575C108.625 26.995 108.835 27.31 109.165 27.52C109.525 27.76 110.08 27.895 110.83 27.925C111.79 27.985 112.81 28.015 113.89 28.015C115.81 28.015 117.205 27.97 118.075 27.88L120.37 27.7V33.505C119.17 33.865 117.52 34.105 115.42 34.225C114.4 34.315 113.2 34.36 111.82 34.36Z" fill="#06334D"/>
</svg>
