<svg width="88" height="84" viewBox="0 0 88 84" fill="none" xmlns="http://www.w3.org/2000/svg">
<path d="M79.4589 0.264648H8.54144C3.9498 0.264648 0.227539 3.98691 0.227539 8.57854V58.887C0.227539 63.4787 3.9498 67.2009 8.54144 67.2009H79.4589C84.0505 67.2009 87.7728 63.4787 87.7728 58.887V8.57854C87.7728 3.98691 84.0505 0.264648 79.4589 0.264648Z" fill="#06334D"/>
<path d="M31.7664 63.4326C31.7664 63.4326 29.4529 73.9865 16.5283 83.265C16.5283 83.265 39.1729 74.7549 46.612 63.4326H31.7664Z" fill="#06334D"/>
<path d="M68.8322 18.6264L19.235 18.5312C18.6978 18.5301 18.2614 18.9648 18.2603 19.5021L18.2059 47.8527C18.2049 48.39 18.6396 48.8264 19.1769 48.8274L68.774 48.9226C69.3113 48.9236 69.7477 48.4889 69.7487 47.9517L69.8031 19.6011C69.8042 19.0638 69.3695 18.6274 68.8322 18.6264Z" fill="#407BFF"/>
<path opacity="0.8" d="M68.8322 18.6264L19.235 18.5312C18.6978 18.5301 18.2614 18.9648 18.2603 19.5021L18.2059 47.8527C18.2049 48.39 18.6396 48.8264 19.1769 48.8274L68.774 48.9226C69.3113 48.9236 69.7477 48.4889 69.7487 47.9517L69.8031 19.6011C69.8042 19.0638 69.3695 18.6274 68.8322 18.6264Z" fill="white"/>
<path opacity="0.2" d="M50.6259 35.3351L49.04 34.2888L50.6259 33.2424C52.6778 31.8853 54.7542 30.561 56.7816 29.1549L62.9046 25.0266C64.9157 23.6123 66.9512 22.2389 68.9541 20.8001C66.8286 22.0345 64.7276 23.318 62.6103 24.5851L56.3402 28.46C54.2392 29.7517 52.1791 31.0924 50.1027 32.4085L48.1407 33.6593L47.2169 34.2888L47.0044 34.4196L45.443 35.4087C45.0254 35.7146 44.5218 35.8806 44.0042 35.8829C43.4857 35.8782 42.982 35.7094 42.5654 35.4005L41.0204 34.4032L40.8078 34.2806L39.8759 33.6675L37.9139 32.4167C35.8375 31.0842 33.7855 29.7353 31.6846 28.4519C27.5317 25.8277 23.3462 23.2363 19.1116 20.7266C23.1091 23.596 27.172 26.3673 31.2513 29.1304C33.2787 30.5283 35.3388 31.8608 37.3825 33.2178L38.9603 34.2642L37.407 35.3025C35.3551 36.6595 33.3196 37.9757 31.2595 39.3899L25.1447 43.5019C23.1254 44.908 21.0572 46.2977 19.0952 47.7365C21.2207 46.5021 23.3135 45.2105 25.4308 43.9433L31.7091 40.0603C33.8019 38.7768 35.8538 37.4279 37.9384 36.1199L39.9086 34.8774L40.4972 35.2616L42.034 36.2753C42.6119 36.7122 43.3165 36.9487 44.041 36.9487C44.7654 36.9487 45.4701 36.7122 46.0479 36.2753L47.5848 35.2616L48.1734 34.8774L50.1354 36.1363C52.2037 37.4524 54.2637 38.8095 56.3565 40.1011C60.5257 42.7089 64.6949 45.3167 68.9459 47.8183C64.9402 44.9489 60.8773 42.1776 56.8061 39.4144C54.7379 38.0329 52.6696 36.6922 50.6259 35.3351Z" fill="black"/>
</svg>
